0 FreeBuild Inventory
0 Name: freebuild.ldr
0 !BRICKPLAYER MODE FREEBUILD
0
0 === Baseplate: 32x32 studs tiled with Plate 4x8 (3035.dat) ===
0 === Part is 160 LDU (X, 8 studs) x 80 LDU (Z, 4 studs) ===
0 === 4 columns (X, spacing 160) x 8 rows (Z, spacing 80) = 32 plates ===
0 === Grid centered at origin: X from -320 to +320, Z from -320 to +320 ===
0 Row 1 (Z = -280)
1 15 -240 0 -280 1 0 0 0 1 0 0 0 1 3035.dat
1 15 -80 0 -280 1 0 0 0 1 0 0 0 1 3035.dat
1 15 80 0 -280 1 0 0 0 1 0 0 0 1 3035.dat
1 15 240 0 -280 1 0 0 0 1 0 0 0 1 3035.dat
0 Row 2 (Z = -200)
1 15 -240 0 -200 1 0 0 0 1 0 0 0 1 3035.dat
1 15 -80 0 -200 1 0 0 0 1 0 0 0 1 3035.dat
1 15 80 0 -200 1 0 0 0 1 0 0 0 1 3035.dat
1 15 240 0 -200 1 0 0 0 1 0 0 0 1 3035.dat
0 Row 3 (Z = -120)
1 15 -240 0 -120 1 0 0 0 1 0 0 0 1 3035.dat
1 15 -80 0 -120 1 0 0 0 1 0 0 0 1 3035.dat
1 15 80 0 -120 1 0 0 0 1 0 0 0 1 3035.dat
1 15 240 0 -120 1 0 0 0 1 0 0 0 1 3035.dat
0 Row 4 (Z = -40)
1 15 -240 0 -40 1 0 0 0 1 0 0 0 1 3035.dat
1 15 -80 0 -40 1 0 0 0 1 0 0 0 1 3035.dat
1 15 80 0 -40 1 0 0 0 1 0 0 0 1 3035.dat
1 15 240 0 -40 1 0 0 0 1 0 0 0 1 3035.dat
0 Row 5 (Z = 40)
1 15 -240 0 40 1 0 0 0 1 0 0 0 1 3035.dat
1 15 -80 0 40 1 0 0 0 1 0 0 0 1 3035.dat
1 15 80 0 40 1 0 0 0 1 0 0 0 1 3035.dat
1 15 240 0 40 1 0 0 0 1 0 0 0 1 3035.dat
0 Row 6 (Z = 120)
1 15 -240 0 120 1 0 0 0 1 0 0 0 1 3035.dat
1 15 -80 0 120 1 0 0 0 1 0 0 0 1 3035.dat
1 15 80 0 120 1 0 0 0 1 0 0 0 1 3035.dat
1 15 240 0 120 1 0 0 0 1 0 0 0 1 3035.dat
0 Row 7 (Z = 200)
1 15 -240 0 200 1 0 0 0 1 0 0 0 1 3035.dat
1 15 -80 0 200 1 0 0 0 1 0 0 0 1 3035.dat
1 15 80 0 200 1 0 0 0 1 0 0 0 1 3035.dat
1 15 240 0 200 1 0 0 0 1 0 0 0 1 3035.dat
0 Row 8 (Z = 280)
1 15 -240 0 280 1 0 0 0 1 0 0 0 1 3035.dat
1 15 -80 0 280 1 0 0 0 1 0 0 0 1 3035.dat
1 15 80 0 280 1 0 0 0 1 0 0 0 1 3035.dat
1 15 240 0 280 1 0 0 0 1 0 0 0 1 3035.dat
0 STEP
0
0 === Inventory Bricks (step 1) - free to drag ===
0
0 === Brick 2x4 (3001.dat) - 6 colors ===
1 4 -200 -24 -500 1 0 0 0 1 0 0 0 1 3001.dat
1 1 -120 -24 -500 1 0 0 0 1 0 0 0 1 3001.dat
1 2 -40 -24 -500 1 0 0 0 1 0 0 0 1 3001.dat
1 14 40 -24 -500 1 0 0 0 1 0 0 0 1 3001.dat
1 15 120 -24 -500 1 0 0 0 1 0 0 0 1 3001.dat
1 0 200 -24 -500 1 0 0 0 1 0 0 0 1 3001.dat
0
0 === Brick 2x2 (3003.dat) - 6 colors ===
1 4 -200 -24 -560 1 0 0 0 1 0 0 0 1 3003.dat
1 1 -120 -24 -560 1 0 0 0 1 0 0 0 1 3003.dat
1 2 -40 -24 -560 1 0 0 0 1 0 0 0 1 3003.dat
1 14 40 -24 -560 1 0 0 0 1 0 0 0 1 3003.dat
1 15 120 -24 -560 1 0 0 0 1 0 0 0 1 3003.dat
1 0 200 -24 -560 1 0 0 0 1 0 0 0 1 3003.dat
0
0 === Brick 1x1 (3005.dat) - 6 colors ===
1 4 -200 -24 -620 1 0 0 0 1 0 0 0 1 3005.dat
1 1 -120 -24 -620 1 0 0 0 1 0 0 0 1 3005.dat
1 2 -40 -24 -620 1 0 0 0 1 0 0 0 1 3005.dat
1 14 40 -24 -620 1 0 0 0 1 0 0 0 1 3005.dat
1 15 120 -24 -620 1 0 0 0 1 0 0 0 1 3005.dat
1 0 200 -24 -620 1 0 0 0 1 0 0 0 1 3005.dat
0
0 === Brick 1x4 (3010.dat) - 6 colors ===
1 4 -200 -24 -680 1 0 0 0 1 0 0 0 1 3010.dat
1 1 -120 -24 -680 1 0 0 0 1 0 0 0 1 3010.dat
1 2 -40 -24 -680 1 0 0 0 1 0 0 0 1 3010.dat
1 14 40 -24 -680 1 0 0 0 1 0 0 0 1 3010.dat
1 15 120 -24 -680 1 0 0 0 1 0 0 0 1 3010.dat
1 0 200 -24 -680 1 0 0 0 1 0 0 0 1 3010.dat
0
0 === Plate 2x4 (3020.dat) - 6 colors ===
1 4 -200 -8 -740 1 0 0 0 1 0 0 0 1 3020.dat
1 1 -120 -8 -740 1 0 0 0 1 0 0 0 1 3020.dat
1 2 -40 -8 -740 1 0 0 0 1 0 0 0 1 3020.dat
1 14 40 -8 -740 1 0 0 0 1 0 0 0 1 3020.dat
1 15 120 -8 -740 1 0 0 0 1 0 0 0 1 3020.dat
1 0 200 -8 -740 1 0 0 0 1 0 0 0 1 3020.dat
0
0 === Plate 2x2 (3022.dat) - 6 colors ===
1 4 -200 -8 -800 1 0 0 0 1 0 0 0 1 3022.dat
1 1 -120 -8 -800 1 0 0 0 1 0 0 0 1 3022.dat
1 2 -40 -8 -800 1 0 0 0 1 0 0 0 1 3022.dat
1 14 40 -8 -800 1 0 0 0 1 0 0 0 1 3022.dat
1 15 120 -8 -800 1 0 0 0 1 0 0 0 1 3022.dat
1 0 200 -8 -800 1 0 0 0 1 0 0 0 1 3022.dat
0
0 === Plate 1x1 (3024.dat) - 6 colors ===
1 4 -200 -8 -860 1 0 0 0 1 0 0 0 1 3024.dat
1 1 -120 -8 -860 1 0 0 0 1 0 0 0 1 3024.dat
1 2 -40 -8 -860 1 0 0 0 1 0 0 0 1 3024.dat
1 14 40 -8 -860 1 0 0 0 1 0 0 0 1 3024.dat
1 15 120 -8 -860 1 0 0 0 1 0 0 0 1 3024.dat
1 0 200 -8 -860 1 0 0 0 1 0 0 0 1 3024.dat
